<?xml version="1.0" encoding="UTF-8"?>
<svg xmlns="http://www.w3.org/2000/svg" xmlns:xlink="http://www.w3.org/1999/xlink" width="20px" height="20px" viewBox="0 0 20 20" version="1.1">
<g id="surface1">
<path style="fill:#fff;stroke-width:5;stroke-linecap:round;stroke-linejoin:miter;stroke:rgb(100%,100%,100%);stroke-opacity:1;stroke-miterlimit:4;" d="M 25.224609 148.007812 C 47.988281 148.007812 101.865234 148.007812 132.978516 148.007812 C 172.353516 148.007812 253.652344 148.007812 295.488281 148.007812 C 329.238281 148.007812 388.300781 148.007812 413.701172 148.007812 C 418.710938 148.007812 424.951172 148.007812 426.09375 148.007812 C 426.09375 174.287109 426.09375 240.732422 426.09375 280.986328 C 426.09375 313.945312 426.09375 356.396484 426.09375 365.976562 C 425.566406 379.863281 425.214844 385.400391 423.896484 388.740234 C 423.193359 390.673828 421.171875 393.75 419.853516 394.980469 C 418.447266 396.210938 415.195312 398.056641 413.261719 398.759766 C 409.306641 399.990234 392.783203 399.990234 389.970703 399.990234 C 366.152344 399.990234 308.408203 399.990234 274.394531 399.990234 C 231.943359 399.990234 153.544922 399.990234 117.597656 399.990234 C 91.933594 399.990234 62.578125 399.990234 58.886719 399.990234 C 45.966797 399.990234 40.78125 399.814453 37.529297 398.759766 C 35.771484 398.056641 32.783203 396.210938 31.552734 394.980469 C 30.322266 393.75 28.388672 390.673828 27.685547 388.740234 C 26.279297 384.960938 25.3125 368.789062 25.224609 365.976562 C 25.224609 339.785156 25.224609 273.251953 25.224609 232.998047 C 25.224609 200.126953 25.224609 157.587891 25.224609 148.007812 Z M 25.224609 148.007812 " transform="matrix(0.0444444,0,0,0.0444444,0,0)"/>
<path style="fill:#000;stroke-width:5;stroke-linecap:round;stroke-linejoin:miter;stroke:rgb(0%,0%,0%);stroke-opacity:1;stroke-miterlimit:4;" d="M 136.933594 234.052734 L 200.654297 295.136719 L 310.869141 186.416016 L 337.060547 216.826172 L 200.214844 354.199219 L 110.302734 264.111328 Z M 136.933594 234.052734 " transform="matrix(0.0444444,0,0,0.0444444,0,0)"/>
<path style="fill:#fff;stroke-width:5;stroke-linecap:round;stroke-linejoin:miter;stroke:rgb(100%,100%,100%);stroke-opacity:1;stroke-miterlimit:4;" d="M 425.742188 126.123047 C 402.890625 126.123047 349.013672 126.035156 317.988281 126.035156 C 278.525391 126.035156 197.226562 125.947266 155.390625 125.859375 C 121.640625 125.859375 62.578125 125.859375 37.177734 125.771484 C 32.167969 125.771484 25.927734 125.771484 24.785156 125.771484 C 24.785156 125.771484 24.960938 57.832031 24.960938 57.832031 C 25.576172 43.945312 25.927734 38.496094 27.158203 35.068359 C 27.949219 33.222656 29.970703 30.058594 31.289062 28.828125 C 32.607422 27.597656 35.859375 25.751953 37.792969 25.136719 C 41.748047 23.818359 58.271484 23.818359 61.171875 23.90625 C 84.990234 23.90625 142.734375 23.90625 176.748047 23.994141 C 219.199219 23.994141 297.597656 24.082031 333.457031 24.082031 C 359.208984 24.082031 388.564453 24.169922 392.255859 24.169922 C 405.175781 24.169922 410.273438 24.257812 413.525391 25.400391 C 415.283203 26.103516 418.271484 27.949219 419.589844 29.179688 C 420.732422 30.410156 422.666016 33.486328 423.369141 35.419922 C 424.775391 39.199219 425.742188 55.371094 425.917969 58.183594 C 425.917969 58.183594 425.742188 126.123047 425.742188 126.123047 Z M 425.742188 126.123047 " transform="matrix(0.0444444,0,0,0.0444444,0,0)"/>
<path style="fill:#000;stroke-width:5;stroke-linecap:round;stroke-linejoin:round;stroke:rgb(0%,0%,0%);stroke-opacity:1;stroke-miterlimit:4;" d="M 104.238281 59.326172 C 106.171875 56.865234 112.148438 52.207031 115.048828 51.064453 C 117.949219 49.833984 125.507812 48.867188 128.671875 49.21875 C 131.748047 49.658203 138.779297 52.646484 141.328125 54.492188 C 143.789062 56.425781 148.447266 62.490234 149.677734 65.390625 C 150.820312 68.291016 151.787109 75.849609 151.435547 78.925781 C 150.996094 82.089844 148.095703 89.121094 146.162109 91.582031 C 144.228516 94.130859 138.164062 98.701172 135.263672 99.931641 C 132.363281 101.162109 124.804688 102.128906 121.728516 101.689453 C 118.652344 101.25 111.533203 98.349609 109.072266 96.503906 C 106.611328 94.570312 101.953125 88.505859 100.722656 85.605469 C 99.580078 82.705078 98.613281 75.146484 98.964844 71.982422 C 99.404297 68.90625 102.304688 61.875 104.238281 59.326172 Z M 104.238281 59.326172 " transform="matrix(0.0444444,0,0,0.0444444,0,0)"/>
<path style="fill:#000;stroke-width:5;stroke-linecap:round;stroke-linejoin:round;stroke:rgb(0%,0%,0%);stroke-opacity:1;stroke-miterlimit:4;" d="M 304.189453 59.326172 C 306.123047 56.865234 312.1875 52.207031 315.087891 51.064453 C 317.988281 49.833984 325.546875 48.867188 328.623047 49.21875 C 331.787109 49.658203 338.818359 52.646484 341.279297 54.492188 C 343.828125 56.425781 348.398438 62.490234 349.628906 65.390625 C 350.859375 68.291016 351.826172 75.849609 351.386719 78.925781 C 350.947266 82.089844 348.046875 89.121094 346.201172 91.582031 C 344.267578 94.130859 338.203125 98.701172 335.302734 99.931641 C 332.402344 101.162109 324.84375 102.128906 321.679688 101.689453 C 318.603516 101.25 311.572266 98.349609 309.111328 96.503906 C 306.5625 94.570312 301.992188 88.505859 300.761719 85.605469 C 299.53125 82.705078 298.564453 75.146484 299.003906 71.982422 C 299.355469 68.90625 302.34375 61.875 304.189453 59.326172 Z M 304.189453 59.326172 " transform="matrix(0.0444444,0,0,0.0444444,0,0)"/>
</g>
</svg>
